<svg width="143" height="30" viewBox="0 0 143 30" fill="none" xmlns="http://www.w3.org/2000/svg">
<g clip-path="url(#clip0_6_2)">
<path d="M57.1798 15.6752C57.1798 19.7324 54.2255 22.2729 50.335 22.2729C46.4446 22.2729 43.4847 19.7324 43.4847 15.6752V5.04785H46.5118V15.5811C46.5118 17.2416 47.4256 19.4224 50.335 19.4224C53.2445 19.4224 54.1526 17.2416 54.1526 15.5811V5.04785H57.1798V15.6752Z" fill="white"/>
<path d="M65.1177 8.3246H60.2631V5.04785H73.7171V8.3246H68.8625V21.8467H65.1177V8.3246Z" fill="white"/>
<path d="M81.1898 9.93531L79.1212 15.1549H83.2752L81.1842 9.93531H81.1898ZM79.7491 5.04785H82.8491L90.2488 21.8412H86.022L84.5533 18.2822H77.944L76.5257 21.8412H72.3942L79.7435 5.04785H79.7491Z" fill="white"/>
<path d="M95.9332 18.4261H97.8784C101.36 18.4261 103.983 17.1253 103.983 13.3062C103.983 10.0073 101.315 8.46298 98.1419 8.46298H95.9332V18.4261ZM92.1829 5.04785H97.8055C103.282 5.04785 107.874 7.35043 107.874 13.4943C107.874 18.9242 103.383 21.8412 98.3101 21.8412H92.1829V5.04785Z" fill="white"/>
<path d="M110.794 5.04785H122.354V8.46298H114.545V11.5958H121.922V15.0165H114.545V18.4261H122.785V21.8467H110.794V5.04785Z" fill="white"/>
<path d="M133.823 18.8578C137.019 18.8578 139.11 16.5829 139.11 13.4501C139.11 10.3172 137.019 8.04233 133.823 8.04233C130.628 8.04233 128.537 10.3172 128.537 13.4501C128.537 16.5829 130.628 18.8578 133.823 18.8578ZM133.823 4.6272C139.132 4.6272 143 8.06447 143 13.4501C143 18.8357 139.132 22.2785 133.823 22.2785C128.514 22.2785 124.646 18.8357 124.646 13.4501C124.646 8.06447 128.514 4.6272 133.823 4.6272Z" fill="white"/>
<path d="M45.6149 28.7269C45.4019 28.8708 45.1496 28.9428 44.7797 28.9428C44.4097 28.9428 44.163 28.8819 43.9388 28.7269C43.6361 28.5166 43.5352 28.273 43.5352 27.7361V25.9539H44.0957V27.7638C44.0957 28.2011 44.3256 28.417 44.7965 28.417C45.2281 28.417 45.458 28.1845 45.458 27.7638V25.9539H46.0242V27.7361C46.0242 28.273 45.9233 28.5111 45.6149 28.7269Z" fill="white"/>
<path d="M48.6589 28.9096L47.3864 27.0166C47.3864 27.0166 47.3584 26.9668 47.3247 26.9004C47.3079 26.8671 47.2911 26.8395 47.2911 26.8395C47.2743 26.8063 47.2631 26.7841 47.2518 26.7343V28.8819H46.7137V25.9539H47.364L48.6085 27.8801C48.6085 27.8801 48.6253 27.9133 48.6421 27.9465C48.6533 27.9742 48.6645 27.9963 48.6701 28.0018L48.6982 28.0793L48.7262 28.1291V25.9594H49.2587V28.9151H48.6645L48.6589 28.9096Z" fill="white"/>
<path d="M50.5369 25.9595H49.9707V28.8875H50.5369V25.9595Z" fill="white"/>
<path d="M52.3588 28.9705H51.9664L50.862 25.9595H51.4842L52.1626 27.9355L52.1738 27.9742L52.185 28.024L52.1962 28.0794V28.0462C52.1962 28.0074 52.1962 27.9964 52.2074 27.9742L52.2242 27.941L52.8689 25.965H53.4631L52.3644 28.9761L52.3588 28.9705Z" fill="white"/>
<path d="M53.8051 28.8875V25.9595H55.6102V26.43H54.3713V27.155H55.386V27.6311H54.3713V28.4115H55.6663V28.8875H53.8051Z" fill="white"/>
<path d="M57.1126 26.43H56.7426V27.2381H57.1126C57.4713 27.2381 57.6283 27.1108 57.6283 26.8229C57.6283 26.5351 57.4826 26.4355 57.1126 26.4355M57.7068 28.8875L57.0285 27.7141H56.7426V28.8875H56.1764V25.9595H57.163C57.5947 25.9595 57.7909 26.0093 57.9647 26.1753C58.1272 26.3193 58.2057 26.5351 58.2057 26.8119C58.2057 27.0388 58.1497 27.2215 58.0431 27.3598C57.931 27.5038 57.8301 27.5646 57.5779 27.6311L58.3178 28.8875H57.6956H57.7068Z" fill="white"/>
<path d="M60.4368 26.6569C60.1229 26.5185 59.865 26.4466 59.6688 26.4466C59.4054 26.4466 59.2316 26.5517 59.2316 26.7178C59.2316 26.8396 59.3045 26.917 59.5119 27.0277C59.966 27.2658 60.2631 27.4539 60.4032 27.5923C60.5265 27.7141 60.605 27.9134 60.605 28.1126C60.605 28.6329 60.2182 28.9429 59.5623 28.9429C59.4726 28.9429 59.3829 28.9429 59.2932 28.9263C59.0802 28.8986 58.9849 28.8654 58.671 28.7215C58.6318 28.7049 58.5645 28.6717 58.4748 28.6329L58.7158 28.1182C58.9289 28.2344 59.0242 28.2787 59.1363 28.323C59.282 28.3728 59.4446 28.406 59.5623 28.406C59.8202 28.406 59.994 28.2897 59.994 28.1126C59.994 27.9908 59.9267 27.9023 59.7361 27.7971L59.2764 27.5425C58.7495 27.2436 58.5869 27.0499 58.5869 26.7289C58.5869 26.5794 58.6318 26.43 58.7046 26.3193C58.7551 26.2473 58.828 26.1698 58.9233 26.1034C59.1363 25.9595 59.3213 25.9097 59.6688 25.9097C59.865 25.9097 60.0444 25.9318 60.2294 25.9872C60.3752 26.0314 60.4537 26.0646 60.6499 26.1587L60.4256 26.6624L60.4368 26.6569Z" fill="white"/>
<path d="M61.7038 25.9595H61.1376V28.8875H61.7038V25.9595Z" fill="white"/>
<path d="M64.1423 26.6237C63.9854 26.5074 63.7555 26.4521 63.4304 26.4521H62.9819V28.3949H63.4304C64.1031 28.3949 64.4843 28.0462 64.4843 27.4207C64.4843 27.0886 64.3554 26.7787 64.1423 26.6237ZM64.6861 28.4558C64.4114 28.7436 64.019 28.8875 63.4864 28.8875H62.3877V25.9595H63.4864C64.047 25.9595 64.4002 26.0812 64.6917 26.3912C64.9496 26.6624 65.0897 27.0333 65.0897 27.4152C65.0897 27.7971 64.9384 28.1846 64.6805 28.4558" fill="white"/>
<path d="M66.4351 26.6292L66.0931 27.6919H66.7827L66.4351 26.6292ZM67.1695 28.8875L66.934 28.1624H65.9418L65.7007 28.8875H65.1065L66.1828 25.9595H66.6874L67.7637 28.8875H67.1695Z" fill="white"/>
<path d="M69.8379 26.6237C69.6809 26.5074 69.4511 26.4521 69.1259 26.4521H68.6775V28.3949H69.1259C69.7986 28.3949 70.1798 28.0462 70.1798 27.4207C70.1798 27.0886 70.0509 26.7787 69.8379 26.6237ZM70.3817 28.4558C70.107 28.7436 69.7146 28.8875 69.182 28.8875H68.0833V25.9595H69.182C69.7426 25.9595 70.0958 26.0812 70.3873 26.3912C70.6451 26.6624 70.7853 27.0333 70.7853 27.4152C70.7853 27.7971 70.6395 28.1846 70.3761 28.4558" fill="white"/>
<path d="M73.9694 26.6457C73.8124 26.5295 73.5826 26.4741 73.2574 26.4741H72.809V28.4169H73.2574C73.9301 28.4169 74.3113 28.0682 74.3113 27.4428C74.3113 27.1107 74.1824 26.8062 73.9694 26.6513M74.5131 28.4834C74.2384 28.7712 73.846 28.9151 73.3135 28.9151H72.2203V25.9871H73.3191C73.8797 25.9871 74.2328 26.1088 74.5243 26.4188C74.7822 26.69 74.9224 27.0609 74.9224 27.4428C74.9224 27.8247 74.7766 28.2122 74.5131 28.4834Z" fill="white"/>
<path d="M75.3989 28.9095V25.9814H77.2096V26.4575H75.9707V27.1826H76.9797V27.653H75.9707V28.4335H77.2656V28.9095H75.3989Z" fill="white"/>
<path d="M79.878 27.6532H79.508V28.4613H79.878C80.0517 28.4613 80.1358 28.4447 80.2199 28.406C80.3433 28.3451 80.4217 28.2122 80.4217 28.0628C80.4217 27.7971 80.2311 27.6477 79.878 27.6477M79.878 26.4189H79.508V27.1716H79.8443C80.1639 27.1716 80.3376 27.0388 80.3376 26.7897C80.3376 26.5573 80.1639 26.4189 79.878 26.4189ZM80.1246 28.9041H78.9138V25.9761H79.9901C80.3769 25.9761 80.5675 26.0259 80.7301 26.1698C80.8758 26.2916 80.9655 26.5019 80.9655 26.6956C80.9655 26.8617 80.9038 27.0333 80.7973 27.155C80.6684 27.3045 80.5451 27.3543 80.3096 27.3709C80.7581 27.382 81.044 27.6698 81.044 28.1237C81.044 28.6274 80.7188 28.9041 80.1302 28.9041" fill="white"/>
<path d="M82.8995 26.4132C82.3389 26.4132 81.9241 26.856 81.9241 27.4482C81.9241 28.0405 82.3389 28.4833 82.8995 28.4833C83.4601 28.4833 83.8693 28.046 83.8693 27.4482C83.8693 26.8505 83.4545 26.4132 82.8995 26.4132ZM82.8995 28.9704C81.9745 28.9704 81.3243 28.3394 81.3243 27.4482C81.3186 26.5405 81.9633 25.9316 82.8995 25.9316C83.8357 25.9316 84.4691 26.546 84.4691 27.4482C84.4691 28.3505 83.8189 28.9704 82.8995 28.9704Z" fill="white"/>
<path d="M87.1544 28.8708C86.8404 28.9427 86.6554 28.9704 86.4088 28.9704C85.4278 28.9704 84.7438 28.3505 84.7438 27.4427C84.7438 26.9999 84.912 26.6125 85.2315 26.3246C85.5399 26.0479 85.8762 25.9316 86.392 25.9316C86.6106 25.9316 86.8236 25.9538 87.0142 25.9981C87.16 26.0313 87.2497 26.0645 87.4571 26.153L87.3225 26.618C87.216 26.5792 87.1319 26.5516 87.0759 26.535C86.8629 26.463 86.6554 26.4298 86.4648 26.4298C85.8033 26.4298 85.3381 26.8339 85.3381 27.415C85.3381 27.9962 85.8482 28.4722 86.5041 28.4722C86.6386 28.4722 86.7171 28.4556 86.8909 28.4113V27.6032H87.4571V28.7988C87.3225 28.832 87.2216 28.8542 87.1544 28.8708Z" fill="white"/>
<path d="M89.4247 26.4132C88.8641 26.4132 88.4493 26.856 88.4493 27.4482C88.4493 28.0405 88.8641 28.4833 89.4247 28.4833C89.9853 28.4833 90.3945 28.046 90.3945 27.4482C90.3945 26.8505 89.9797 26.4132 89.4247 26.4132ZM89.4247 28.9704C88.4998 28.9704 87.8495 28.3394 87.8495 27.4482C87.8495 26.5405 88.4886 25.9316 89.4247 25.9316C90.3609 25.9316 91 26.546 91 27.4482C91 28.3505 90.3497 28.9704 89.4247 28.9704Z" fill="white"/>
<path d="M92.536 26.4575V28.9095H91.9698V26.4575H91.0785V25.9814H93.4273V26.4575H92.536Z" fill="white"/>
<path d="M94.6158 25.8542H94.2009L94.6214 25.3284H95.1259L94.6158 25.8542ZM94.4756 26.6568L94.1337 27.7195H94.8232L94.4812 26.6568H94.4756ZM95.2044 28.9151L94.9689 28.19H93.9767L93.7356 28.9151H93.1414L94.2178 25.987H94.7279L95.7986 28.9151H95.2044Z" fill="white"/>
<path d="M97.5981 29.5959C97.5084 29.7398 97.4524 29.8173 97.3066 30L96.8862 29.7177C97.0375 29.4797 97.0712 29.4188 97.1384 29.2859C97.2449 29.0756 97.2842 28.8597 97.2842 28.5442V26.0369H97.8448V29.0479C97.7663 29.3081 97.727 29.3966 97.6037 29.5959" fill="white"/>
<path d="M99.8965 26.4686C99.3359 26.4686 98.9211 26.9114 98.9211 27.5037C98.9211 28.0959 99.3359 28.5387 99.8965 28.5387C100.457 28.5387 100.866 28.1015 100.866 27.5037C100.866 26.9059 100.452 26.4686 99.8965 26.4686ZM99.8965 29.0258C98.9716 29.0258 98.3213 28.3948 98.3213 27.5037C98.3213 26.5959 98.9604 25.9871 99.8965 25.9871C100.833 25.9871 101.466 26.6015 101.466 27.5037C101.466 28.4059 100.816 29.0258 99.8965 29.0258Z" fill="white"/>
<path d="M102.896 26.5128H102.526V27.3209H102.896C103.254 27.3209 103.411 27.1936 103.411 26.9003C103.411 26.6235 103.26 26.5073 102.896 26.5073M103.49 28.9593L102.812 27.7859H102.531V28.9593H101.965V26.0312H102.952C103.383 26.0312 103.58 26.0811 103.753 26.2471C103.916 26.391 103.994 26.6069 103.994 26.8781C103.994 27.1051 103.938 27.2877 103.832 27.4316C103.72 27.5755 103.619 27.6364 103.367 27.7028L104.107 28.9593H103.484H103.49Z" fill="white"/>
<path d="M106.691 28.9262C106.377 28.9981 106.192 29.0258 105.945 29.0258C104.964 29.0258 104.28 28.4059 104.28 27.4981C104.28 27.0553 104.448 26.6679 104.768 26.38C105.076 26.1033 105.418 25.9871 105.928 25.9871C106.141 25.9871 106.36 26.0092 106.545 26.0535C106.691 26.0867 106.78 26.1199 106.988 26.2085L106.853 26.6734C106.747 26.6347 106.668 26.607 106.612 26.5904C106.399 26.5184 106.192 26.4797 106.001 26.4797C105.334 26.4797 104.874 26.8837 104.874 27.4649C104.874 28.0461 105.379 28.5221 106.041 28.5221C106.175 28.5221 106.254 28.511 106.427 28.4612V27.6531H106.994V28.8487C106.859 28.8819 106.758 28.8985 106.691 28.9206" fill="white"/>
<path d="M107.638 28.9649V26.0369H109.443V26.5129H108.204V27.2324H109.219V27.7085H108.204V28.4889H109.499V28.9649H107.638Z" fill="white"/>
<path d="M112.269 26.5129V28.9649H111.702V26.5129H110.811V26.0369H113.154V26.5129H112.269Z" fill="white"/>
<path d="M114.208 26.7066L113.866 27.7638H114.556L114.208 26.7066ZM114.943 28.9649L114.707 28.2398H113.715L113.474 28.9649H112.88L113.956 26.0369H114.461L115.537 28.9649H114.943Z" fill="white"/>
<path d="M117.611 26.7012C117.454 26.5849 117.224 26.5296 116.899 26.5296H116.451V28.4724H116.899C117.572 28.4724 117.947 28.1237 117.947 27.4982C117.947 27.1661 117.818 26.8617 117.605 26.7067M118.149 28.5388C117.875 28.8266 117.482 28.9705 116.95 28.9705H115.851V26.0425H116.95C117.51 26.0425 117.863 26.1643 118.155 26.4742C118.413 26.7454 118.553 27.1163 118.553 27.4982C118.553 27.8801 118.407 28.2676 118.144 28.5388" fill="white"/>
<path d="M119.041 28.9649V26.0369H120.846V26.5129H119.607V27.2324H120.621V27.7085H119.607V28.4889H120.907V28.9649H119.041Z" fill="white"/>
<path d="M122.718 26.4686C122.157 26.4686 121.743 26.9114 121.743 27.5037C121.743 28.0959 122.157 28.5387 122.718 28.5387C123.279 28.5387 123.688 28.1015 123.688 27.5037C123.688 26.9059 123.273 26.4686 122.718 26.4686ZM122.718 29.0258C121.793 29.0258 121.143 28.3948 121.143 27.5037C121.137 26.5959 121.782 25.9871 122.718 25.9871C123.654 25.9871 124.293 26.6015 124.293 27.5037C124.293 28.4059 123.643 29.0258 122.718 29.0258Z" fill="white"/>
<path d="M125.958 28.9649V26.0369H126.524V28.4889H127.735V28.9649H125.958Z" fill="white"/>
<path d="M129.383 26.4686C128.823 26.4686 128.408 26.9114 128.408 27.5037C128.408 28.0959 128.823 28.5387 129.383 28.5387C129.944 28.5387 130.353 28.1015 130.353 27.5037C130.353 26.9059 129.938 26.4686 129.383 26.4686ZM129.383 29.0258C128.458 29.0258 127.808 28.3948 127.808 27.5037C127.808 26.5959 128.447 25.9871 129.383 25.9871C130.32 25.9871 130.959 26.6015 130.959 27.5037C130.959 28.4059 130.308 29.0258 129.383 29.0258Z" fill="white"/>
<path d="M131.138 28.9649V28.5996L132.747 26.5129H131.166V26.0369H133.509V26.4022L131.928 28.4889H133.509V28.9649H131.138Z" fill="white"/>
<path d="M135.045 26.7066L134.703 27.7638H135.393L135.045 26.7066ZM135.78 28.9649L135.544 28.2398H134.552L134.311 28.9649H133.717L134.793 26.0369H135.303L136.379 28.9649H135.785H135.78Z" fill="white"/>
<path d="M138.672 28.9926L137.4 27.0996C137.4 27.0996 137.372 27.0442 137.338 26.9834C137.321 26.9446 137.304 26.928 137.299 26.9225C137.282 26.8893 137.271 26.8671 137.26 26.8173V28.9649H136.721V26.0369H137.372L138.616 27.9631C138.616 27.9631 138.633 27.9963 138.65 28.0239C138.661 28.0572 138.672 28.0738 138.678 28.0793L138.706 28.1568L138.734 28.2066V26.0369H139.266V28.9926H138.672Z" fill="white"/>
<path d="M141.352 26.4686C140.791 26.4686 140.376 26.9114 140.376 27.5037C140.376 28.0959 140.791 28.5387 141.352 28.5387C141.912 28.5387 142.322 28.1015 142.322 27.5037C142.322 26.9059 141.912 26.4686 141.352 26.4686ZM141.352 29.0258C140.427 29.0258 139.777 28.3948 139.777 27.5037C139.777 26.5959 140.416 25.9871 141.352 25.9871C142.288 25.9871 142.927 26.6015 142.927 27.5037C142.927 28.4059 142.277 29.0258 141.352 29.0258Z" fill="white"/>
<path d="M4.08667 28.9373V9.03874L30.7482 3.7915V5.83394L6.53643 10.2011V28.3782L4.08667 28.9373Z" fill="white"/>
<path d="M8.01636 28.4558V11.7233L30.1315 8.44653V10.3118L10.4549 12.7417V27.9189L8.01636 28.4558Z" fill="white"/>
<path d="M12.0526 27.93V14.5794L29.4812 12.6311V13.8931L14.2501 15.3156V27.4651L12.0526 27.93Z" fill="white"/>
<path d="M37.7499 28.9373V9.56458L37.0772 9.35978V5.44649L36.2195 5.15867V0.741697L33.9043 0V29.6458L37.7499 28.9373Z" fill="white"/>
<path d="M2.36567 22.8266V7.08487L33.9043 0L0 4.58303L2.36567 22.8266Z" fill="white"/>
</g>
<defs>
<clipPath id="clip0_6_2">
<rect width="143" height="30" fill="white"/>
</clipPath>
</defs>
</svg>
